<svg width="25" height="25" viewBox="0 0 25 25" fill="none" xmlns="http://www.w3.org/2000/svg">
<g id="Icons">
<path id="Vector (Stroke)" fill-rule="evenodd" clip-rule="evenodd" d="M18.7197 3.71967C19.0126 3.42678 19.4874 3.42678 19.7803 3.71967L22.0303 5.96967C22.3232 6.26256 22.3232 6.73744 22.0303 7.03033L19.7803 9.28033C19.4874 9.57322 19.0126 9.57322 18.7197 9.28033C18.4268 8.98744 18.4268 8.51256 18.7197 8.21967L20.4393 6.5L18.7197 4.78033C18.4268 4.48744 18.4268 4.01256 18.7197 3.71967Z" fill="#581C87"/>
<path id="Vector (Stroke)_2" fill-rule="evenodd" clip-rule="evenodd" d="M9.49883 5.75L9.5 5.75L21.5 5.75C21.9142 5.75 22.25 6.08579 22.25 6.5C22.25 6.91421 21.9142 7.25 21.5 7.25H9.50061C8.10878 7.25232 6.77461 7.80624 5.79043 8.79043C4.80611 9.77474 4.25217 11.1091 4.25 12.5012C4.24935 12.9154 3.91304 13.2506 3.49883 13.25C3.08462 13.2494 2.74936 12.913 2.75 12.4988C2.75279 10.7098 3.46472 8.99482 4.72977 7.72977C5.99481 6.46472 7.70979 5.75279 9.49883 5.75Z" fill="#581C87"/>
<path id="Vector (Stroke)_3" fill-rule="evenodd" clip-rule="evenodd" d="M6.28033 15.7197C6.57322 16.0126 6.57322 16.4874 6.28033 16.7803L4.56066 18.5L6.28033 20.2197C6.57322 20.5126 6.57322 20.9874 6.28033 21.2803C5.98744 21.5732 5.51256 21.5732 5.21967 21.2803L2.96967 19.0303C2.67678 18.7374 2.67678 18.2626 2.96967 17.9697L5.21967 15.7197C5.51256 15.4268 5.98744 15.4268 6.28033 15.7197Z" fill="#581C87"/>
<path id="Vector (Stroke)_4" fill-rule="evenodd" clip-rule="evenodd" d="M21.5012 11.75C21.9154 11.7506 22.2506 12.087 22.25 12.5012C22.2472 14.2902 21.5353 16.0052 20.2702 17.2702C19.0052 18.5353 17.2902 19.2472 15.5012 19.25L3.5 19.25C3.08579 19.25 2.75 18.9142 2.75 18.5C2.75 18.0858 3.08579 17.75 3.5 17.75H15.4995C16.8913 17.7477 18.2254 17.1937 19.2096 16.2096C20.1939 15.2253 20.7478 13.8909 20.75 12.4988C20.7506 12.0846 21.087 11.7494 21.5012 11.75Z" fill="#581C87"/>
</g>
</svg>
