<svg width="25" height="25" viewBox="0 0 25 25" fill="none" xmlns="http://www.w3.org/2000/svg">
<g clip-path="url(#clip0_124_78)">
<path d="M12.5 0C15.952 0 19.0768 1.39871 21.3385 3.66149C23.6002 5.92321 25 9.049 25 12.5C25 15.951 23.6013 19.0768 21.3385 21.3385C19.0768 23.6002 15.951 25 12.5 25C9.04795 25 5.92321 23.6013 3.66149 21.3385C1.39871 19.0768 0 15.951 0 12.5C0 9.049 1.39871 5.92321 3.66149 3.66149C5.92321 1.39871 9.04795 0 12.5 0ZM11.4781 6.33578C11.4781 5.95794 11.7843 5.65168 12.1622 5.65168C12.54 5.65168 12.8463 5.95794 12.8463 6.33578V12.6505L17.597 15.4669C17.9212 15.6584 18.0296 16.0773 17.838 16.4025C17.6465 16.7267 17.2276 16.8351 16.9024 16.6435L11.8517 13.6493C11.6296 13.5356 11.4781 13.3051 11.4781 13.0399V6.33578ZM20.3713 4.62869C18.3569 2.6143 15.5742 1.36819 12.5 1.36819C9.42578 1.36819 6.64309 2.6143 4.62869 4.62869C2.6143 6.64309 1.36819 9.42578 1.36819 12.5C1.36819 15.5742 2.6143 18.3569 4.62869 20.3713C6.64309 22.3857 9.42578 23.6318 12.5 23.6318C15.5742 23.6318 18.3569 22.3857 20.3713 20.3713C22.3857 18.3569 23.6318 15.5742 23.6318 12.5C23.6318 9.42578 22.3857 6.64309 20.3713 4.62869Z" fill="#581C87"/>
</g>
<defs>
<clipPath id="clip0_124_78">
<rect width="25" height="25" fill="white"/>
</clipPath>
</defs>
</svg>
